<svg xmlns="http://www.w3.org/2000/svg" xmlns:xlink="http://www.w3.org/1999/xlink" viewBox="0 0 296.7 107.3" xmlns:v="https://vecta.io/nano"><defs><path id="A" d="M-21 6.4h317.7v99.1H-21z"/></defs><clipPath id="B"><use xlink:href="#A"/></clipPath><g clip-path="url(#B)"><defs><path id="C" d="M-21 6.4h317.7v99.1H-21z"/></defs><clipPath id="D"><use xlink:href="#C"/></clipPath><g fill="#231f20"><path d="M295.6 23.8c-.3 1.3-1 2.4-2.1 3.2-.8.6-1.8.8-2.8.8s-2-.4-2.9-1.1l-5.1 3.4c1.1 2 1.6 4.1 1.6 6.3 0 7.5-6.1 13.6-13.6 13.6s-13.6-6.1-13.6-13.6c0-2.2.5-4.3 1.6-6.3l-5.1-3.4c-.9.7-1.9 1.1-2.9 1.1s-1.9-.3-2.8-.8c-1.1-.7-1.8-1.9-2.1-3.2s0-2.6.8-3.7c.9-1.4 2.4-2.2 4.1-2.2 1 0 1.9.3 2.8.8 1.7 1.2 2.5 3.4 1.9 5.4l5.1 3.4c.8-.9 1.7-1.7 2.6-2.4l-2.9-5.4c-.2.1-.5.2-.8.2-1.8 0-3.5-1-4.4-2.6-.6-1.2-.7-2.5-.4-3.8.4-1.3 1.2-2.3 2.4-2.9.7-.4 1.5-.6 2.3-.6 1.8 0 3.5 1 4.4 2.6.6 1.2.7 2.5.4 3.8-.2.7-.6 1.3-1.2 1.9l2.8 5.3c1.1-.4 2.2-.7 3.5-.8v-6.1c-2-.7-3.4-2.5-3.4-4.6a4.91 4.91 0 0 1 4.9-4.9 4.91 4.91 0 0 1 4.9 4.9c0 2.1-1.4 3.9-3.4 4.6v6.1c1.3.1 2.4.4 3.5.8l2.8-5.3c-.6-.6-1-1.2-1.2-1.9-.4-1.3-.3-2.6.4-3.8.9-1.6 2.5-2.6 4.4-2.6.8 0 1.6.2 2.3.6 1.2.6 2 1.7 2.4 2.9.4 1.3.3 2.6-.4 3.8-.9 1.6-2.5 2.6-4.4 2.6-.3 0-.6-.1-.8-.2l-2.9 5.4c1 .7 1.8 1.5 2.6 2.4l5.1-3.4c-.6-2.1.2-4.2 1.9-5.4.8-.6 1.8-.8 2.8-.8 1.6 0 3.2.8 4.1 2.2h0c.8 1.1 1.1 2.4.8 3.7m-15.3-8.2c.1.5.5.9.9 1.1.9.5 2.1.1 2.6-.8.2-.4.3-1 .1-1.4-.1-.5-.5-.9-.9-1.1-.9-.5-2.1-.1-2.6.8-.2.4-.3.9-.1 1.4M261 14.2c-.3-.6-1-1-1.7-1-.3 0-.6.1-.9.2-.4.2-.8.6-.9 1.1s-.1 1 .1 1.4c.5.9 1.6 1.3 2.6.8.4-.2.8-.6.9-1.1.2-.5.1-1-.1-1.4m-8.5 8.3c-.1-.5-.4-.9-.8-1.2-.3-.2-.7-.3-1.1-.3-.6 0-1.2.3-1.6.8-.3.4-.4.9-.3 1.4s.4.9.8 1.2c.8.6 2.1.3 2.6-.5.4-.4.5-.9.4-1.4m18.2-8.4c1 0 1.9-.8 1.9-1.9s-.8-1.9-1.9-1.9c-1 0-1.9.8-1.9 1.9s.9 1.9 1.9 1.9m10 22.3c0-5.5-4.5-10-10-10s-10 4.5-10 10 4.5 10 10 10 10-4.5 10-10m11.9-13.2c.1-.5 0-1-.3-1.4-.4-.5-.9-.8-1.6-.8-.4 0-.7.1-1.1.3-.4.3-.7.7-.8 1.2s0 1 .3 1.4c.6.8 1.8 1.1 2.6.5.6-.2.8-.7.9-1.2h0zM13 67.6l39.1 35.8h-8.6L8.4 71.8l-1.3 1.3v30.3H.8V35h6.3v30.4L41.6 35H50zm45.3 35.8h37.3v-5.8H64.5V68.5h30.4v-5.8H64.5V40.8h31.1V35H58.3zm91.6-28.8c0 7.5-.5 11.7-3.1 15.9-4.8 7.8-14.2 8.4-16.9 8.4-2.8 0-12.1-.6-16.9-8.4-2.6-4.2-3.1-8.4-3.1-15.9V35h-6.2v39.6c0 7.7.3 13.6 4.4 19.6 5.9 8.6 15.1 10.4 21.8 10.4s15.9-1.8 21.8-10.4c4.1-6 4.4-11.9 4.4-19.6V35h-6.2v39.6zm73.5 16.8l-57-56.4h-2v68.4h6.3V48l56 55.4h3V35h-6.3zm20.8-22.9h30.4v-5.8h-30.4V40.8h9.1V35H238v68.4h37.3v-5.8h-31.1z" clip-path="url(#D)"/></g></g></svg>